# xmcd
#
# Track frame offsets:
#	150
#	12338
#	23001
#	38450
#	52276
#	64547
#	77280
#	89570
#	102021
#	114098
#	126235
#	139444
#	153984
#	167163
#	179344
#	190397
#	200682
#	213515
#	226259
#	239371
#	253171
#	266589
#	278395
#	290308
#	303555
#
# Disc length: 4231 seconds
# Revision: 4
# Processed by: cddbd v1.5.2PL0 Copyright (c) Steve Scherf et al.
# Submitted via: dBpowerAMP V12.0
#
DISCID=5b108519
DTITLE=Various Artist - Definitive Chicago Blues - CD2
DYEAR=2012
DGENRE=Blues
TTITLE0=Little Walter - My Babe
TTITLE1=Junior Wells - Come on in This House
TTITLE2=Tampa Red - Things 'Bout Comin' My Way
TTITLE3=Muddy Waters - I'm Ready
TTITLE4=Otis Rush - Double Trouble
TTITLE5=Sonny Boy Williamson - Keep it to Yourself
TTITLE6=Memphis Minnie - Dirty Mother for You
TTITLE7=Magic Sam - Easy Baby
TTITLE8=Jimmy Rogers - Chicago Bound
TTITLE9=Elmore James - Make My Dreams Come True
TTITLE10=Floyd Jones - Early Morning
TTITLE11=Bo Diddley - Say Man
TTITLE12=Sunnyland Slim - Woman Trouble
TTITLE13=Howlin' Wolf - How Many More Years
TTITLE14=Little Brother Montgomery - Vicksburg Blues '51
TTITLE15=Jimmy McCracklin - I Know
TTITLE16=Willie Mabon - Poison Ivy
TTITLE17=Jimmy Reed - The Sun is Shining
TTITLE18=Junior Wells - Junior's Wail
TTITLE19=Little Walter - You're So Fine
TTITLE20=Jimmy Nelson - Free and Easy Mind
TTITLE21=Buddy Guy - Try to Quit You Baby
TTITLE22=Willie Nix - Truckin' Little Woman
TTITLE23=Percy Mayfield - Are You Out There?
TTITLE24=Willie Dixon - Walkin' The Blues
EXTD=
EXTT0=
EXTT1=
EXTT2=
EXTT3=
EXTT4=
EXTT5=
EXTT6=
EXTT7=
EXTT8=
EXTT9=
EXTT10=
EXTT11=
EXTT12=
EXTT13=
EXTT14=
EXTT15=
EXTT16=
EXTT17=
EXTT18=
EXTT19=
EXTT20=
EXTT21=
EXTT22=
EXTT23=
EXTT24=
PLAYORDER=
